<svg width="292" height="344" viewBox="0 0 292 344" fill="none" xmlns="http://www.w3.org/2000/svg">
<g opacity="0.1">
<path opacity="0.0526316" d="M104.002 274.043C92.0547 277.62 62.8793 276.832 41.7555 245.073C15.3507 205.374 27.0137 160.355 8.10362 118.608C-5.85347 87.7957 -54.9816 20.7662 -107.949 15.7439" stroke="white" stroke-width="1.25007"/>
<path opacity="0.157895" d="M139.427 247.879C128.485 253.861 99.7831 259.157 72.5177 232.483C38.4361 199.142 40.4843 152.681 13.3077 115.779C-6.75064 88.5414 -68.7414 33.1909 -121.596 39.291" stroke="white" stroke-width="1.25007"/>
<path opacity="0.210526" d="M155.064 232.98C144.807 240.074 116.816 248.34 86.9119 224.663C49.5317 195.066 46.7123 148.647 15.8272 114.787C-6.96831 89.7953 -74.4052 41.2279 -126.333 52.8194" stroke="white" stroke-width="1.25007"/>
<path opacity="0.263158" d="M169.188 217.087C159.729 225.213 132.755 236.361 100.54 215.939C60.2708 190.412 52.6147 144.541 18.3594 114.095C-6.92349 91.6232 -79.0676 50.3709 -129.499 67.3267" stroke="white" stroke-width="1.25007"/>
<path opacity="0.315789" d="M181.684 200.36C173.125 209.431 147.465 223.337 113.291 206.395C70.5744 185.216 58.1654 140.397 20.9153 113.698C-6.57804 93.9928 -82.639 60.5076 -131.022 82.642" stroke="white" stroke-width="1.25007"/>
<path opacity="0.368421" d="M192.471 182.96C184.908 192.875 160.841 209.387 125.084 196.11C80.3876 179.513 63.3617 136.236 23.5249 113.577C-5.87769 96.8533 -85.0221 71.5021 -130.826 98.5727" stroke="white" stroke-width="1.25007"/>
<path opacity="0.421053" d="M201.501 165.066C195.015 175.718 172.807 194.655 135.858 185.188C89.6712 173.354 68.2149 132.094 26.2278 113.724C-4.76175 100.165 -86.1225 83.2254 -128.846 114.936" stroke="white" stroke-width="1.25007"/>
<path opacity="0.473684" d="M208.717 146.902C203.38 158.174 183.273 179.329 145.537 173.775C98.3661 166.834 72.7145 128.043 29.0372 114.162C-3.19991 103.917 -85.8857 95.5744 -125.06 131.577" stroke="white" stroke-width="1.25007"/>
<path opacity="0.526316" d="M214.114 128.629C209.985 140.397 192.199 163.538 154.089 161.96C106.451 159.987 76.8855 124.09 31.9965 114.85C-1.13493 108.031 -84.2397 108.377 -119.437 148.277" stroke="white" stroke-width="1.25007"/>
<path opacity="0.578947" d="M217.681 110.442C214.804 122.577 199.535 147.45 161.468 149.864C113.885 152.881 80.7293 120.271 35.1204 115.775C1.45763 112.456 -81.1557 121.487 -111.989 164.848" stroke="white" stroke-width="1.25007"/>
<path opacity="0.631579" d="M219.436 92.5177C217.843 104.887 205.257 131.22 167.652 137.599C120.645 145.574 84.262 116.609 38.4329 116.904C4.60762 117.122 -76.6091 134.739 -102.741 181.085" stroke="white" stroke-width="1.25007"/>
<path opacity="0.684211" d="M219.418 75.0773C219.127 87.545 209.362 115.049 172.63 125.325C126.714 138.17 87.5025 113.166 41.9553 118.25C8.3381 122.002 -70.5922 148.013 -91.7367 196.836" stroke="white" stroke-width="1.25007"/>
<path opacity="0.736842" d="M217.695 58.2752C218.709 70.7049 211.873 99.0792 176.416 113.138C132.094 130.712 90.4839 109.944 45.7176 119.761C12.6768 127.007 -63.1023 161.125 -79.0275 211.891" stroke="white" stroke-width="1.25007"/>
<path opacity="0.789474" d="M214.343 42.2929C216.651 54.5486 212.818 83.4819 179.025 101.17C136.783 123.281 93.2298 106.976 49.735 121.419C17.6326 132.078 -54.165 173.931 -64.6965 226.084" stroke="white" stroke-width="1.25007"/>
<path opacity="0.842105" d="M209.444 27.3164C213.02 39.2636 212.233 68.4391 180.473 89.5629C140.774 115.968 95.7552 104.305 54.0083 123.215C23.196 137.172 -43.8335 186.3 -48.8558 239.268" stroke="white" stroke-width="1.25007"/>
<path opacity="0.894737" d="M203.127 13.4652C207.933 24.9732 210.2 54.0711 180.822 78.399C144.1 108.809 98.109 101.915 58.5674 125.086C29.3828 142.187 -32.1442 198.053 -31.6024 251.255" stroke="white" stroke-width="1.25007"/>
<path opacity="0.947368" d="M195.498 0.90665C201.48 11.8493 206.776 40.5509 180.103 67.8162C146.761 101.898 100.301 99.8497 63.3977 127.026C36.1605 147.085 -19.1899 209.075 -13.0899 261.93" stroke="white" stroke-width="1.25007"/>
<path d="M186.728 -10.2263C193.822 0.0310641 202.089 28.0219 178.411 57.926C148.814 95.3062 102.395 98.1256 68.5346 129.011C43.5434 151.806 -5.02405 219.243 6.56742 271.17" stroke="white" stroke-width="1.25007"/>
</g>
</svg>
