<svg width="316" height="146" viewBox="0 0 316 146" fill="none" xmlns="http://www.w3.org/2000/svg">
<g opacity="0.1">
<path opacity="0.0526316" d="M144.579 166.582C153.81 169.345 176.351 168.737 192.672 144.199C213.072 113.527 204.061 78.7448 218.671 46.4906C229.455 22.6846 267.412 -29.1034 308.336 -32.9837" stroke="white" stroke-width="1.25007"/>
<path opacity="0.157895" d="M117.208 146.366C125.662 150.988 147.838 155.079 168.903 134.471C195.235 108.711 193.653 72.8148 214.65 44.3031C230.147 23.2593 278.042 -19.5053 318.878 -14.7923" stroke="white" stroke-width="1.25007"/>
<path opacity="0.210526" d="M105.127 134.857C113.052 140.337 134.678 146.724 157.782 128.431C186.663 105.564 188.841 69.6994 212.703 43.5386C230.316 24.23 282.418 -13.2939 322.538 -4.33813" stroke="white" stroke-width="1.25007"/>
<path opacity="0.263158" d="M94.2179 122.574C101.527 128.853 122.367 137.466 147.257 121.687C178.369 101.965 184.284 66.5243 210.75 43.0011C230.284 25.6392 286.024 -6.23288 324.988 6.86745" stroke="white" stroke-width="1.25007"/>
<path opacity="0.315789" d="M84.5631 109.652C91.1755 116.66 111.001 127.404 137.404 114.314C170.408 97.9512 179.995 63.3234 208.775 42.6955C230.017 27.4706 288.782 1.59946 326.163 18.7009" stroke="white" stroke-width="1.25007"/>
<path opacity="0.368421" d="M76.2276 96.2086C82.0713 103.87 100.665 116.627 128.292 106.369C162.825 93.5454 175.979 60.1094 206.758 42.6028C229.475 29.6817 290.623 10.095 326.011 31.0101" stroke="white" stroke-width="1.25007"/>
<path opacity="0.421053" d="M69.2501 82.3847C74.2609 90.6145 91.4195 105.246 119.967 97.9311C155.651 88.7879 172.229 56.9101 204.669 42.7167C228.612 32.2409 291.472 19.1532 324.481 43.6529" stroke="white" stroke-width="1.25007"/>
<path opacity="0.473684" d="M63.6739 68.3519C67.797 77.0605 83.3322 93.405 112.488 89.1146C148.933 83.7515 168.751 53.7811 202.497 43.0563C227.404 35.1407 291.288 28.6954 321.555 56.5112" stroke="white" stroke-width="1.25007"/>
<path opacity="0.526316" d="M59.5047 54.2325C62.6949 63.3243 76.4365 81.2032 105.881 79.9838C142.686 78.4597 165.529 50.7251 200.211 43.5864C225.809 38.3176 290.017 38.5853 317.211 69.4125" stroke="white" stroke-width="1.25007"/>
<path opacity="0.578947" d="M56.7476 40.1805C58.97 49.556 70.7675 68.7733 100.178 70.6384C136.941 72.9698 162.558 47.7749 197.796 44.3006C223.805 41.7363 287.633 48.7141 311.455 82.215" stroke="white" stroke-width="1.25007"/>
<path opacity="0.631579" d="M55.3923 26.3313C56.6225 35.8877 66.3466 56.2329 95.4011 61.162C131.719 67.3235 159.829 44.9442 195.238 45.1724C221.372 45.3408 284.121 58.9522 304.311 94.7596" stroke="white" stroke-width="1.25007"/>
<path opacity="0.684211" d="M55.4052 12.8561C55.6298 22.4888 63.174 43.739 91.5541 51.6781C127.029 61.6021 157.325 42.2838 192.515 46.2118C218.488 49.111 279.471 69.207 295.807 106.929" stroke="white" stroke-width="1.25007"/>
<path opacity="0.736842" d="M56.738 -0.1236C55.9544 9.47979 61.236 31.4021 88.6308 42.2643C122.874 55.8421 155.023 39.7963 189.61 47.3813C215.138 52.9795 273.686 79.3398 285.99 118.562" stroke="white" stroke-width="1.25007"/>
<path opacity="0.789474" d="M59.3272 -12.4739C57.5441 -3.005 60.5053 19.3493 86.6146 33.0156C119.251 50.0984 152.901 37.501 186.506 48.6597C211.309 56.8956 266.78 89.2315 274.917 129.525" stroke="white" stroke-width="1.25007"/>
<path opacity="0.842105" d="M63.1111 -24.0441C60.348 -14.8134 60.9563 7.72794 85.494 24.0485C116.166 44.4492 150.949 35.4381 183.203 50.0484C207.009 60.8318 258.797 98.7889 262.677 139.713" stroke="white" stroke-width="1.25007"/>
<path opacity="0.894737" d="M67.994 -34.7448C64.2812 -25.8536 62.5299 -3.37211 85.2273 15.4239C113.599 38.919 149.133 33.593 179.683 51.4947C202.232 64.7075 249.768 107.87 249.35 148.975" stroke="white" stroke-width="1.25007"/>
<path opacity="0.947368" d="M73.8862 -44.4503C69.2643 -35.9959 65.1727 -13.8206 85.781 7.24497C111.541 33.577 147.437 31.9945 175.949 52.9915C196.993 68.4888 239.757 116.384 235.044 157.22" stroke="white" stroke-width="1.25007"/>
<path d="M80.6667 -53.0488C75.1864 -45.1238 68.7992 -23.4977 87.0927 -0.393324C109.96 28.4871 145.824 30.6654 171.985 54.5277C191.293 72.1398 228.817 124.242 219.862 164.362" stroke="white" stroke-width="1.25007"/>
</g>
</svg>
