<svg width="25" height="24" viewBox="0 0 25 24" fill="none" xmlns="http://www.w3.org/2000/svg">
    <path d="M4.36328 19V17H6.36328V10C6.36328 8.61667 6.77995 7.38767 7.61328 6.313C8.44661 5.23834 9.52995 4.534 10.8633 4.2V3.5C10.8633 3.08334 11.0093 2.72934 11.3013 2.438C11.5933 2.14667 11.9473 2.00067 12.3633 2C12.7793 1.99934 13.1336 2.14534 13.4263 2.438C13.7189 2.73067 13.8646 3.08467 13.8633 3.5V4.2C15.1966 4.53334 16.2799 5.23767 17.1133 6.313C17.9466 7.38834 18.3633 8.61734 18.3633 10V17H20.3633V19H4.36328ZM12.3633 22C11.8133 22 11.3426 21.8043 10.9513 21.413C10.5599 21.0217 10.3639 20.5507 10.3633 20H14.3633C14.3633 20.55 14.1676 21.021 13.7763 21.413C13.3849 21.805 12.9139 22.0007 12.3633 22ZM8.36328 17H16.3633V10C16.3633 8.9 15.9716 7.95834 15.1883 7.175C14.4049 6.39167 13.4633 6 12.3633 6C11.2633 6 10.3216 6.39167 9.53828 7.175C8.75495 7.95834 8.36328 8.9 8.36328 10V17Z" fill="var(--color-icon)"/>
</svg>
