<svg width="25" height="24" viewBox="0 0 25 24" fill="none" xmlns="http://www.w3.org/2000/svg">
    <path d="M4.5 19V17H6.5V10C6.5 8.61667 6.91667 7.38767 7.75 6.313C8.58333 5.23834 9.66667 4.534 11 4.2V3.5C11 3.08334 11.146 2.72934 11.438 2.438C11.73 2.14667 12.084 2.00067 12.5 2C12.916 1.99934 13.2703 2.14534 13.563 2.438C13.8557 2.73067 14.0013 3.08467 14 3.5V4.2C15.3333 4.53334 16.4167 5.23767 17.25 6.313C18.0833 7.38834 18.5 8.61734 18.5 10V17H20.5V19H4.5ZM12.5 22C11.95 22 11.4793 21.8043 11.088 21.413C10.6967 21.0217 10.5007 20.5507 10.5 20H14.5C14.5 20.55 14.3043 21.021 13.913 21.413C13.5217 21.805 13.0507 22.0007 12.5 22ZM8.5 17H16.5V10C16.5 8.9 16.1083 7.95834 15.325 7.175C14.5417 6.39167 13.6 6 12.5 6C11.4 6 10.4583 6.39167 9.675 7.175C8.89167 7.95834 8.5 8.9 8.5 10V17Z" fill="var(--color-icon)"/>
    <circle cx="22" cy="3" r="3" fill="var(--color-primary)"/>
</svg>
