<svg width="22" height="21" viewBox="0 0 22 21" fill="none" xmlns="http://www.w3.org/2000/svg">
<path d="M7.98005 11.9386C8.26277 11.9386 8.53391 11.8263 8.73382 11.6264C8.93373 11.4265 9.04604 11.1553 9.04604 10.8726C9.04604 10.5899 8.93373 10.3188 8.73382 10.1189C8.53391 9.91895 8.26277 9.80664 7.98005 9.80664C7.69733 9.80664 7.4262 9.91895 7.22628 10.1189C7.02637 10.3188 6.91406 10.5899 6.91406 10.8726C6.91406 11.1553 7.02637 11.4265 7.22628 11.6264C7.4262 11.8263 7.69733 11.9386 7.98005 11.9386ZM7.98005 14.9234C8.26277 14.9234 8.53391 14.8111 8.73382 14.6112C8.93373 14.4113 9.04604 14.1401 9.04604 13.8574C9.04604 13.5747 8.93373 13.3035 8.73382 13.1036C8.53391 12.9037 8.26277 12.7914 7.98005 12.7914C7.69733 12.7914 7.4262 12.9037 7.22628 13.1036C7.02637 13.3035 6.91406 13.5747 6.91406 13.8574C6.91406 14.1401 7.02637 14.4113 7.22628 14.6112C7.4262 14.8111 7.69733 14.9234 7.98005 14.9234ZM12.0308 10.8726C12.0308 11.1553 11.9185 11.4265 11.7186 11.6264C11.5187 11.8263 11.2475 11.9386 10.9648 11.9386C10.6821 11.9386 10.411 11.8263 10.2111 11.6264C10.0111 11.4265 9.89883 11.1553 9.89883 10.8726C9.89883 10.5899 10.0111 10.3188 10.2111 10.1189C10.411 9.91895 10.6821 9.80664 10.9648 9.80664C11.2475 9.80664 11.5187 9.91895 11.7186 10.1189C11.9185 10.3188 12.0308 10.5899 12.0308 10.8726ZM10.9648 14.9234C11.2475 14.9234 11.5187 14.8111 11.7186 14.6112C11.9185 14.4113 12.0308 14.1401 12.0308 13.8574C12.0308 13.5747 11.9185 13.3035 11.7186 13.1036C11.5187 12.9037 11.2475 12.7914 10.9648 12.7914C10.6821 12.7914 10.411 12.9037 10.2111 13.1036C10.0111 13.3035 9.89883 13.5747 9.89883 13.8574C9.89883 14.1401 10.0111 14.4113 10.2111 14.6112C10.411 14.8111 10.6821 14.9234 10.9648 14.9234ZM15.0156 10.8726C15.0156 11.1553 14.9033 11.4265 14.7034 11.6264C14.5035 11.8263 14.2323 11.9386 13.9496 11.9386C13.6669 11.9386 13.3957 11.8263 13.1958 11.6264C12.9959 11.4265 12.8836 11.1553 12.8836 10.8726C12.8836 10.5899 12.9959 10.3188 13.1958 10.1189C13.3957 9.91895 13.6669 9.80664 13.9496 9.80664C14.2323 9.80664 14.5035 9.91895 14.7034 10.1189C14.9033 10.3188 15.0156 10.5899 15.0156 10.8726Z" fill="#616161"/>
<path fill-rule="evenodd" clip-rule="evenodd" d="M7.55344 2.77148C7.72307 2.77148 7.88575 2.83887 8.0057 2.95882C8.12565 3.07876 8.19303 3.24145 8.19303 3.41108V4.05067H13.7362V3.41108C13.7362 3.24145 13.8036 3.07876 13.9235 2.95882C14.0435 2.83887 14.2061 2.77148 14.3758 2.77148C14.5454 2.77148 14.7081 2.83887 14.828 2.95882C14.948 3.07876 15.0154 3.24145 15.0154 3.41108V4.0575C15.145 4.06091 15.2658 4.06716 15.3778 4.07626C15.7019 4.10184 16.0055 4.15983 16.2929 4.30651C16.7342 4.53137 17.0931 4.8902 17.3179 5.33157C17.4646 5.61896 17.5226 5.92255 17.5482 6.24661C17.5737 6.55788 17.5737 6.93738 17.5737 7.39362V13.926C17.5737 14.3823 17.5737 14.7617 17.5482 15.073C17.5226 15.3971 17.4646 15.7007 17.3179 15.9881C17.0933 16.4293 16.7348 16.7881 16.2937 17.0131C16.0055 17.1598 15.7019 17.2178 15.3778 17.2434C15.0665 17.269 14.687 17.269 14.2317 17.269H7.69841C7.24217 17.269 6.86268 17.269 6.55141 17.2434C6.22735 17.2178 5.92375 17.1598 5.63636 17.0131C5.19526 16.7887 4.83645 16.4305 4.61131 15.9898C4.46463 15.7015 4.40664 15.3979 4.38105 15.0739C4.35547 14.7626 4.35547 14.3831 4.35547 13.9277V7.39362C4.35547 6.93738 4.35547 6.55788 4.38105 6.24661C4.40664 5.92255 4.46463 5.61896 4.61131 5.33157C4.83616 4.8902 5.195 4.53137 5.63636 4.30651C5.92375 4.15983 6.22735 4.10184 6.55141 4.07626C6.66341 4.06716 6.78422 4.06091 6.91385 4.0575V3.41108C6.91385 3.32709 6.93039 3.24392 6.96253 3.16632C6.99467 3.08872 7.04179 3.01821 7.10118 2.95882C7.16057 2.89943 7.23108 2.85231 7.30868 2.82017C7.38628 2.78803 7.46945 2.77148 7.55344 2.77148ZM16.2946 8.74103H5.63466V13.9004C5.63466 14.3882 5.63466 14.7166 5.65598 14.9681C5.67559 15.2137 5.71141 15.3306 5.75064 15.4073C5.85297 15.6086 6.01586 15.7715 6.21711 15.8738C6.29387 15.913 6.4107 15.9488 6.65545 15.9685C6.90788 15.9889 7.23535 15.9898 7.724 15.9898H14.2052C14.693 15.9898 15.0213 15.9898 15.2729 15.9685C15.5185 15.9488 15.6354 15.913 15.7121 15.8738C15.913 15.7715 16.0763 15.6082 16.1786 15.4073C16.2178 15.3306 16.2536 15.2137 16.2732 14.9681C16.2937 14.7166 16.2946 14.3882 16.2946 13.9004V8.74103ZM9.68542 5.96946C9.51579 5.96946 9.35311 6.03684 9.23316 6.15679C9.11321 6.27674 9.04583 6.43942 9.04583 6.60905C9.04583 6.77868 9.11321 6.94137 9.23316 7.06131C9.35311 7.18126 9.51579 7.24865 9.68542 7.24865H12.2438C12.4134 7.24865 12.5761 7.18126 12.6961 7.06131C12.816 6.94137 12.8834 6.77868 12.8834 6.60905C12.8834 6.43942 12.816 6.27674 12.6961 6.15679C12.5761 6.03684 12.4134 5.96946 12.2438 5.96946H9.68542Z" fill="#616161"/>
</svg>
