<svg width="24" height="24" viewBox="0 0 24 24" fill="none" xmlns="http://www.w3.org/2000/svg">
<path d="M4 19C3.45 19 2.97933 18.8043 2.588 18.413C2.19667 18.0217 2.00067 17.5507 2 17V7C2 6.45 2.196 5.97933 2.588 5.588C2.98 5.19667 3.45067 5.00067 4 5H20C20.55 5 21.021 5.196 21.413 5.588C21.805 5.98 22.0007 6.45067 22 7V17C22 17.55 21.8043 18.021 21.413 18.413C21.0217 18.805 20.5507 19.0007 20 19H4ZM4 17H20V7H4V17ZM17.5 14.5H15.75C15.5333 14.5 15.3543 14.571 15.213 14.713C15.0717 14.855 15.0007 15.034 15 15.25C14.9993 15.466 15.0703 15.6453 15.213 15.788C15.3557 15.9307 15.5347 16.0013 15.75 16H18C18.2833 16 18.521 15.904 18.713 15.712C18.905 15.52 19.0007 15.2827 19 15V12.75C19 12.5333 18.929 12.3543 18.787 12.213C18.645 12.0717 18.466 12.0007 18.25 12C18.034 11.9993 17.855 12.0703 17.713 12.213C17.571 12.3557 17.5 12.5347 17.5 12.75V14.5ZM12 15C12.8333 15 13.5417 14.7083 14.125 14.125C14.7083 13.5417 15 12.8333 15 12C15 11.1667 14.7083 10.4583 14.125 9.875C13.5417 9.29167 12.8333 9 12 9C11.1667 9 10.4583 9.29167 9.875 9.875C9.29167 10.4583 9 11.1667 9 12C9 12.8333 9.29167 13.5417 9.875 14.125C10.4583 14.7083 11.1667 15 12 15ZM6.5 9.5H8.25C8.46667 9.5 8.646 9.429 8.788 9.287C8.93 9.145 9.00067 8.966 9 8.75C8.99933 8.534 8.92833 8.355 8.787 8.213C8.64567 8.071 8.46667 8 8.25 8H6C5.71667 8 5.47933 8.096 5.288 8.288C5.09667 8.48 5.00067 8.71733 5 9V11.25C5 11.4667 5.071 11.646 5.213 11.788C5.355 11.93 5.534 12.0007 5.75 12C5.966 11.9993 6.14533 11.9283 6.288 11.787C6.43067 11.6457 6.50133 11.4667 6.5 11.25V9.5Z" fill="#2D6640"/>
</svg>
