<svg width="21" height="20" viewBox="0 0 21 20" fill="none" xmlns="http://www.w3.org/2000/svg">
<path d="M10.3957 9.26277C9.86169 9.26277 9.34954 9.05063 8.97193 8.67302C8.59432 8.29541 8.38218 7.78326 8.38218 7.24923C8.38218 6.71521 8.59432 6.20306 8.97193 5.82545C9.34954 5.44783 9.86169 5.23569 10.3957 5.23569C10.9297 5.23569 11.4419 5.44783 11.8195 5.82545C12.1971 6.20306 12.4093 6.71521 12.4093 7.24923C12.4093 7.51365 12.3572 7.77549 12.256 8.01978C12.1548 8.26407 12.0065 8.48604 11.8195 8.67302C11.6325 8.85999 11.4106 9.00831 11.1663 9.1095C10.922 9.21069 10.6601 9.26277 10.3957 9.26277ZM10.3957 1.61133C8.90045 1.61133 7.46643 2.20532 6.40912 3.26263C5.3518 4.31994 4.75781 5.75397 4.75781 7.24923C4.75781 11.4777 10.3957 17.7196 10.3957 17.7196C10.3957 17.7196 16.0336 11.4777 16.0336 7.24923C16.0336 5.75397 15.4396 4.31994 14.3823 3.26263C13.325 2.20532 11.891 1.61133 10.3957 1.61133Z" fill="#616161"/>
</svg>
