<svg width="25" height="24" viewBox="0 0 25 24" fill="none" xmlns="http://www.w3.org/2000/svg">
    <path d="M6.5 18L4.2 20.3C3.88334 20.6167 3.52067 20.6877 3.112 20.513C2.70333 20.3383 2.49933 20.0257 2.5 19.575V4C2.5 3.45 2.696 2.97933 3.088 2.588C3.48 2.19667 3.95067 2.00067 4.5 2H20.5C21.05 2 21.521 2.196 21.913 2.588C22.305 2.98 22.5007 3.45067 22.5 4V16C22.5 16.55 22.3043 17.021 21.913 17.413C21.5217 17.805 21.0507 18.0007 20.5 18H6.5ZM5.65 16H20.5V4H4.5V17.125L5.65 16Z" fill="var(--color-icon)"/>
    <circle cx="21" cy="5" r="3.5" fill="var(--color-danger)" stroke="var(--color-bg)"/>
</svg>
