<svg width="25" height="24" viewBox="0 0 25 24" fill="none" xmlns="http://www.w3.org/2000/svg">
    <path d="M6.36328 18L4.06328 20.3C3.74662 20.6167 3.38395 20.6877 2.97528 20.513C2.56662 20.3383 2.36262 20.0257 2.36328 19.575V4C2.36328 3.45 2.55928 2.97933 2.95128 2.588C3.34328 2.19667 3.81395 2.00067 4.36328 2H20.3633C20.9133 2 21.3843 2.196 21.7763 2.588C22.1683 2.98 22.364 3.45067 22.3633 4V16C22.3633 16.55 22.1676 17.021 21.7763 17.413C21.385 17.805 20.9139 18.0007 20.3633 18H6.36328ZM5.51328 16H20.3633V4H4.36328V17.125L5.51328 16Z" fill="var(--color-icon)"/>
</svg>
