<svg width="24" height="24" viewBox="0 0 24 24" fill="none" xmlns="http://www.w3.org/2000/svg">
<path d="M4 17C3.71667 17 3.47934 16.904 3.288 16.712C3.09667 16.52 3.00067 16.2827 3 16V8C3 7.71667 3.096 7.47933 3.288 7.288C3.48 7.09667 3.71734 7.00067 4 7H12C12.2833 7 12.521 7.096 12.713 7.288C12.905 7.48 13.0007 7.71733 13 8V16C13 16.2833 12.904 16.521 12.712 16.713C12.52 16.905 12.2827 17.0007 12 17H4ZM5 15H11V9H5V15ZM4 5C3.71667 5 3.47934 4.904 3.288 4.712C3.09667 4.52 3.00067 4.28267 3 4C2.99934 3.71733 3.09534 3.48 3.288 3.288C3.48067 3.096 3.718 3 4 3H20C20.2833 3 20.521 3.096 20.713 3.288C20.905 3.48 21.0007 3.71733 21 4C20.9993 4.28267 20.9033 4.52033 20.712 4.713C20.5207 4.90567 20.2833 5.00133 20 5H4ZM16 9C15.7167 9 15.4793 8.904 15.288 8.712C15.0967 8.52 15.0007 8.28267 15 8C14.9993 7.71733 15.0953 7.48 15.288 7.288C15.4807 7.096 15.718 7 16 7H20C20.2833 7 20.521 7.096 20.713 7.288C20.905 7.48 21.0007 7.71733 21 8C20.9993 8.28267 20.9033 8.52033 20.712 8.713C20.5207 8.90567 20.2833 9.00133 20 9H16ZM16 13C15.7167 13 15.4793 12.904 15.288 12.712C15.0967 12.52 15.0007 12.2827 15 12C14.9993 11.7173 15.0953 11.48 15.288 11.288C15.4807 11.096 15.718 11 16 11H20C20.2833 11 20.521 11.096 20.713 11.288C20.905 11.48 21.0007 11.7173 21 12C20.9993 12.2827 20.9033 12.5203 20.712 12.713C20.5207 12.9057 20.2833 13.0013 20 13H16ZM16 17C15.7167 17 15.4793 16.904 15.288 16.712C15.0967 16.52 15.0007 16.2827 15 16C14.9993 15.7173 15.0953 15.48 15.288 15.288C15.4807 15.096 15.718 15 16 15H20C20.2833 15 20.521 15.096 20.713 15.288C20.905 15.48 21.0007 15.7173 21 16C20.9993 16.2827 20.9033 16.5203 20.712 16.713C20.5207 16.9057 20.2833 17.0013 20 17H16ZM4 21C3.71667 21 3.47934 20.904 3.288 20.712C3.09667 20.52 3.00067 20.2827 3 20C2.99934 19.7173 3.09534 19.48 3.288 19.288C3.48067 19.096 3.718 19 4 19H20C20.2833 19 20.521 19.096 20.713 19.288C20.905 19.48 21.0007 19.7173 21 20C20.9993 20.2827 20.9033 20.5203 20.712 20.713C20.5207 20.9057 20.2833 21.0013 20 21H4Z" fill="#2D6640"/>
<path d="M4 17C3.71667 17 3.47934 16.904 3.288 16.712C3.09667 16.52 3.00067 16.2827 3 16V8C3 7.71667 3.096 7.47933 3.288 7.288C3.48 7.09667 3.71734 7.00067 4 7H12C12.2833 7 12.521 7.096 12.713 7.288C12.905 7.48 13.0007 7.71733 13 8V16C13 16.2833 12.904 16.521 12.712 16.713C12.52 16.905 12.2827 17.0007 12 17H4ZM5 15H11V9H5V15ZM4 5C3.71667 5 3.47934 4.904 3.288 4.712C3.09667 4.52 3.00067 4.28267 3 4C2.99934 3.71733 3.09534 3.48 3.288 3.288C3.48067 3.096 3.718 3 4 3H20C20.2833 3 20.521 3.096 20.713 3.288C20.905 3.48 21.0007 3.71733 21 4C20.9993 4.28267 20.9033 4.52033 20.712 4.713C20.5207 4.90567 20.2833 5.00133 20 5H4ZM16 9C15.7167 9 15.4793 8.904 15.288 8.712C15.0967 8.52 15.0007 8.28267 15 8C14.9993 7.71733 15.0953 7.48 15.288 7.288C15.4807 7.096 15.718 7 16 7H20C20.2833 7 20.521 7.096 20.713 7.288C20.905 7.48 21.0007 7.71733 21 8C20.9993 8.28267 20.9033 8.52033 20.712 8.713C20.5207 8.90567 20.2833 9.00133 20 9H16ZM16 13C15.7167 13 15.4793 12.904 15.288 12.712C15.0967 12.52 15.0007 12.2827 15 12C14.9993 11.7173 15.0953 11.48 15.288 11.288C15.4807 11.096 15.718 11 16 11H20C20.2833 11 20.521 11.096 20.713 11.288C20.905 11.48 21.0007 11.7173 21 12C20.9993 12.2827 20.9033 12.5203 20.712 12.713C20.5207 12.9057 20.2833 13.0013 20 13H16ZM16 17C15.7167 17 15.4793 16.904 15.288 16.712C15.0967 16.52 15.0007 16.2827 15 16C14.9993 15.7173 15.0953 15.48 15.288 15.288C15.4807 15.096 15.718 15 16 15H20C20.2833 15 20.521 15.096 20.713 15.288C20.905 15.48 21.0007 15.7173 21 16C20.9993 16.2827 20.9033 16.5203 20.712 16.713C20.5207 16.9057 20.2833 17.0013 20 17H16ZM4 21C3.71667 21 3.47934 20.904 3.288 20.712C3.09667 20.52 3.00067 20.2827 3 20C2.99934 19.7173 3.09534 19.48 3.288 19.288C3.48067 19.096 3.718 19 4 19H20C20.2833 19 20.521 19.096 20.713 19.288C20.905 19.48 21.0007 19.7173 21 20C20.9993 20.2827 20.9033 20.5203 20.712 20.713C20.5207 20.9057 20.2833 21.0013 20 21H4Z" fill="var(--color-price)"/>
</svg>
