<svg width="24" height="25" viewBox="0 0 24 25" fill="none" xmlns="http://www.w3.org/2000/svg">
<path d="M9.53959 15.7295C7.94093 15.7295 6.58593 15.1742 5.47459 14.0635C4.36393 12.9535 3.80859 11.5989 3.80859 9.99953C3.80859 8.4002 4.36393 7.0452 5.47459 5.93453C6.58526 4.82387 7.94026 4.26887 9.53959 4.26953C11.1389 4.2702 12.4936 4.82553 13.6036 5.93553C14.7136 7.04553 15.2689 8.4002 15.2696 9.99953C15.2696 10.6942 15.1466 11.3665 14.9006 12.0165C14.6546 12.6665 14.3313 13.2225 13.9306 13.6845L19.8396 19.5915C19.9329 19.6849 19.9829 19.7999 19.9896 19.9365C19.9956 20.0719 19.9456 20.1929 19.8396 20.2995C19.7329 20.4062 19.6149 20.4595 19.4856 20.4595C19.3563 20.4595 19.2383 20.4062 19.1316 20.2995L13.2236 14.3915C12.7236 14.8175 12.1486 15.1472 11.4986 15.3805C10.8486 15.6139 10.1953 15.7305 9.53859 15.7305M9.53859 14.7305C10.8653 14.7305 11.9856 14.2739 12.8996 13.3605C13.8129 12.4472 14.2696 11.3269 14.2696 9.99953C14.2696 8.6722 13.8133 7.5522 12.9006 6.63953C11.9879 5.72687 10.8679 5.2702 9.54059 5.26953C8.21326 5.26953 7.09293 5.7262 6.17959 6.63953C5.26626 7.55287 4.80926 8.67286 4.80859 9.99953C4.80793 11.3262 5.26459 12.4462 6.17859 13.3595C7.09259 14.2729 8.21259 14.7295 9.53859 14.7295" fill="black"/>
</svg>
