<svg width="40" height="37" viewBox="0 0 40 37" fill="none" xmlns="http://www.w3.org/2000/svg">
<path d="M19.999 30.659L10.5466 36.1624C10.129 36.4193 9.69248 36.5293 9.23694 36.4926C8.7814 36.4559 8.3828 36.3092 8.04115 36.0524C7.6995 35.7955 7.43377 35.4749 7.24396 35.0904C7.05415 34.7058 7.01619 34.2744 7.13007 33.7959L9.63554 23.3944L1.26502 16.405C0.885406 16.0748 0.648526 15.6984 0.554382 15.2757C0.460237 14.853 0.488329 14.4406 0.638656 14.0385C0.788984 13.6364 1.01675 13.3062 1.32196 13.0479C1.62717 12.7896 2.04475 12.6245 2.57469 12.5526L13.6215 11.617L17.8922 1.82083C18.082 1.38055 18.3766 1.05035 18.7759 0.830207C19.1753 0.610069 19.583 0.5 19.999 0.5C20.4151 0.5 20.8228 0.610069 21.2221 0.830207C21.6215 1.05035 21.9161 1.38055 22.1059 1.82083L26.3766 11.617L37.4234 12.5526C37.9548 12.626 38.3724 12.7911 38.6761 13.0479C38.9798 13.3047 39.2076 13.6349 39.3594 14.0385C39.5112 14.4421 39.5401 14.8552 39.446 15.2779C39.3518 15.7006 39.1142 16.0763 38.733 16.405L30.3625 23.3944L32.868 33.7959C32.9819 34.2729 32.9439 34.7044 32.7541 35.0904C32.5643 35.4763 32.2986 35.797 31.9569 36.0524C31.6153 36.3077 31.2167 36.4545 30.7611 36.4926C30.3056 36.5308 29.869 36.4207 29.4514 36.1624L19.999 30.659Z" fill="#FFAE00" stroke="black"/>
</svg>
