<svg width="21" height="20" viewBox="0 0 21 20" fill="none" xmlns="http://www.w3.org/2000/svg">
<path d="M10.4609 1.62109C14.9397 1.62109 18.5703 5.25166 18.5703 9.73047C18.5703 14.2093 14.9397 17.8398 10.4609 17.8398C5.98213 17.8398 2.35156 14.2093 2.35156 9.73047C2.35156 5.25166 5.98213 1.62109 10.4609 1.62109ZM10.4609 3.24297C8.74034 3.24297 7.09022 3.92647 5.87358 5.14311C4.65694 6.35976 3.97344 8.00988 3.97344 9.73047C3.97344 11.4511 4.65694 13.1012 5.87358 14.3178C7.09022 15.5345 8.74034 16.218 10.4609 16.218C12.1815 16.218 13.8316 15.5345 15.0483 14.3178C16.2649 13.1012 16.9484 11.4511 16.9484 9.73047C16.9484 8.00988 16.2649 6.35976 15.0483 5.14311C13.8316 3.92647 12.1815 3.24297 10.4609 3.24297ZM10.4609 4.86484C10.6596 4.86487 10.8513 4.93779 10.9997 5.06978C11.1481 5.20177 11.243 5.38364 11.2662 5.5809L11.2719 5.67578V9.39474L13.4671 11.5899C13.6125 11.7359 13.697 11.9317 13.7032 12.1376C13.7095 12.3436 13.6372 12.5442 13.5009 12.6987C13.3647 12.8533 13.1747 12.9501 12.9696 12.9697C12.7645 12.9892 12.5596 12.9299 12.3966 12.8039L12.3204 12.7366L9.8876 10.3038C9.76157 10.1777 9.68062 10.0135 9.6573 9.8367L9.65 9.73047V5.67578C9.65 5.46071 9.73544 5.25444 9.88752 5.10236C10.0396 4.95028 10.2459 4.86484 10.4609 4.86484Z" fill="#616161"/>
</svg>
