<svg width="26" height="20" viewBox="0 0 26 20" fill="none" xmlns="http://www.w3.org/2000/svg">
    <path d="M13.2748 15.3C16.9748 15.3 19.0748 13.5 21.0748 10.9C22.1748 9.5 23.5748 9.2 24.5748 10C25.5748 10.8 25.6748 12.3 24.5748 13.7C21.6748 17.5 17.9748 19.8 13.2748 19.8C8.17475 19.8 3.67475 17 0.57475 12.1C-0.32525 10.8 -0.125247 9.4 0.874753 8.7C1.87475 8 3.37475 8.3 4.27475 9.7C6.47475 13 9.47475 15.3 13.2748 15.3ZM20.1747 3C20.1747 4.8 18.7748 6 17.1748 6C15.5748 6 14.1748 4.8 14.1748 3C14.1748 1.2 15.5748 0 17.1748 0C18.7748 0 20.1747 1.3 20.1747 3Z" fill="white"/>
</svg>
