<?xml version="1.0" encoding="UTF-8"?>
<svg version="1.1" xmlns="http://www.w3.org/2000/svg" width="27" height="14">
<path d="M0 0 C7.26153846 -0.49230769 7.26153846 -0.49230769 11 2 C11.66 2.66 12.32 3.32 13 4 C13.515625 3.34 14.03125 2.68 14.5625 2 C17.82641319 -0.67808262 19.88399525 -0.38111155 24 0 C24.66 0.33 25.32 0.66 26 1 C24.75023244 4.65316671 24.32901247 5.78065836 21 8 C18.66800612 8.07905064 16.33167378 8.08798769 14 8 C14 8.66 14 9.32 14 10 C13.01 10 12.02 10 11 10 C11 9.34 11 8.68 11 8 C9.7625 7.9175 8.525 7.835 7.25 7.75 C4.01117036 7.36524541 3.12092117 7.09975997 0.5 4.9375 C0.005 4.298125 -0.49 3.65875 -1 3 C-0.67 2.01 -0.34 1.02 0 0 Z " fill="#316E26" transform="translate(1,4)"/>
<path d="M0 0 C7.38461538 -0.49230769 7.38461538 -0.49230769 10.5 2 C10.995 2.66 11.49 3.32 12 4 C11.67 4.66 11.34 5.32 11 6 C9.35 5.01 7.7 4.02 6 3 C7.22880216 4.2941742 7.22880216 4.2941742 10 6 C10 6.66 10 7.32 10 8 C3.6 7.50769231 3.6 7.50769231 0.5625 4.9375 C-0.2109375 3.9784375 -0.2109375 3.9784375 -1 3 C-0.67 2.01 -0.34 1.02 0 0 Z " fill="#307026" transform="translate(1,4)"/>
<path d="M0 0 C2.75435594 0.4721753 4.93576879 0.96706092 7.4375 2.25 C10.13879522 3.33905601 10.13879522 3.33905601 13.125 1.625 C14.07375 1.08875 15.0225 0.5525 16 0 C16.99 0 17.98 0 19 0 C19 0.66 19 1.32 19 2 C17.865625 2.433125 16.73125 2.86625 15.5625 3.3125 C14.386875 3.869375 13.21125 4.42625 12 5 C11.67 5.99 11.34 6.98 11 8 C10.01 8 9.02 8 8 8 C7.79375 7.401875 7.5875 6.80375 7.375 6.1875 C5.49073918 3.18981233 3.18867916 2.38638224 0 1 C0 0.67 0 0.34 0 0 Z " fill="#085625" transform="translate(4,6)"/>
</svg>
